Coordinates																	
version=1																	
nRows=56																	
nColumns=18																	
inDegrees=yes																	
																	
"Units are S.I. units (second, meters, Newtons, ...)"																	
"If the header above contains a line with 'inDegrees', this indicates whether rotational values are in degrees (yes) or radians (no)."																	
																	
endheader																	
time	/jointset/hip_l/hip_flexion_l/value	/jointset/hip_l/hip_adduction_l/value	/jointset/hip_l/hip_rotation_l/value	/jointset/hip_r/hip_flexion_r/value	/jointset/hip_r/hip_adduction_r/value	/jointset/hip_r/hip_rotation_r/value	/jointset/knee_l/knee_angle_l/value	/jointset/knee_r/knee_angle_r/value	/jointset/ankle_l/ankle_angle_l/value	/jointset/ankle_r/ankle_angle_r/value	/jointset/subtalar_l/subtalar_angle_l/value	/jointset/subtalar_r/subtalar_angle_r/value	/jointset/mtp_l/mtp_angle_l/value	/jointset/mtp_r/mtp_angle_r/value	/jointset/back/lumbar_extension/value	/jointset/back/lumbar_bending/value	/jointset/back/lumbar_rotation/value
25.01	1.11684215	17.11767609	29.15964846	33.96256689	-16.76802665	-3.6678885	-88.81004646	-115.5229247	26.11599399	41.79338247	-4.28872745	-24.69606811	34.03445791	-8.58966086	-2.2709729	-30.30024924	43.55127872
25.02	57.93417286	0.61946471	-8.97269222	25.27532611	-3.89859956	-0.64807524	-6.6488621	-18.3820895	-29.83833572	-23.45794136	24.47308217	-30.03473173	43.19338097	30.35202486	-39.57291405	-2.23939896	14.08380032
25.03	17.51878388	-6.62523387	-3.27352761	-5.53791229	-2.0144935	5.65138642	-51.54491668	-111.150378	-22.12176107	44.22830528	-20.09882328	-11.6813233	1.52706174	55.7043122	-21.35979144	-23.72508377	-27.22838741
25.04	-12.31979059	2.38825257	8.97581738	27.36455322	11.14512995	9.24366699	-95.36267053	-52.18967233	32.48084332	21.38484027	-33.86774381	-30.56565091	52.30061057	49.50966826	-11.77051819	-40.4220345	35.28315276
25.05	-7.73181598	9.19924624	-12.33431109	49.99637951	9.12459039	7.31879253	-81.65946247	-106.0350947	26.5947124	-18.24318756	-17.36153818	-7.74741473	16.56182384	1.8494117	-1.71083145	32.16981426	-6.4128832
25.06	6.4053788	11.36436275	-14.71759843	-9.46551164	15.6156025	30.00929734	-90.01420557	-85.39085305	39.53315892	39.48761299	-6.86869321	-16.48458906	26.68688634	25.67853356	21.94969752	27.23655505	-17.52157026
25.07	60.68071268	-14.51915339	-7.92739542	-0.29842663	9.30279299	9.38200344	4.0687876	-34.20829164	16.56985946	9.47933607	-24.28017512	27.80708059	26.51130677	-5.97948321	-1.58270313	26.8824761	-13.26524577
25.08	45.48531558	-13.12158521	24.18188051	17.66511333	-17.99896175	-0.43291982	-119.228607	-65.6912972	30.02466616	22.24029487	-29.261665	33.84210997	26.86887661	31.87605825	3.17068222	8.36938363	-7.44636253
25.09	33.93644883	-7.74606432	33.2383867	2.55793301	3.34325968	0.85989945	-45.8828055	-37.82692642	-38.22543013	-0.55949326	-7.02080645	-2.51117225	45.88871736	11.0866228	-5.97934788	-33.29597255	-0.67957191
25.1	14.73726904	-13.40920363	3.00039255	-24.96887307	-13.17738923	2.34848793	-106.8400596	-87.12783775	-41.80252378	-27.26022269	-9.44017491	-15.0749444	-8.85555933	23.04906112	-19.90803781	28.84341105	15.18428554
25.11	5.73499466	-16.1303175	30.31574154	37.3954001	-15.13928504	2.37063682	-72.30614524	-56.57531924	22.26996385	-8.40747037	1.40204894	-11.92899826	53.65292222	7.45433713	16.62443998	-14.83969031	28.09971478
25.12	-1.60925132	6.27681474	5.68922906	-22.86507046	14.81986962	3.09849373	-96.08986477	-7.31572278	10.73936923	-47.47309971	-31.47662653	-20.44156561	-9.3138272	-8.34484644	36.07689197	40.5043572	6.18791662
25.13	52.75315299	13.25074185	-7.31390292	26.87100213	-6.35010898	13.30421021	-100.2854485	-36.82955254	-40.41176167	38.47906362	-20.30493649	7.58888834	42.53441765	7.28232798	19.84458874	8.47652251	-42.51547366
25.14	33.25568705	-10.44587457	-1.13285768	49.84039308	7.37093539	-11.49862087	-74.63201783	-8.74950727	-19.18905746	-24.45745356	-33.67945948	-19.25915771	40.49612077	37.56774109	5.06374566	31.9321089	28.6428397
25.15	33.98004554	-6.19384735	33.05813796	-6.37874679	-17.13066656	32.38832544	7.38774481	-106.3363637	-30.61874751	-28.72918106	-14.65045353	-5.95770544	36.00540699	46.69469962	-27.79257279	-40.78951993	5.28609063
25.16	58.83104729	-10.71982359	-2.60459367	68.04822253	10.18279877	18.95927991	-105.9132307	-104.6459792	9.03895257	2.07034162	3.08027449	34.36689713	44.49763918	8.97217274	4.55227319	-25.2448029	-12.62252591
25.17	55.32086706	2.31041752	21.77378276	38.24161313	-3.94536039	10.20018045	-57.08594549	-8.54926868	-10.10102365	-28.89770099	16.57294173	3.18390019	53.74660646	54.29020821	33.9542402	-8.51804893	32.03825097
25.18	22.89936135	18.57879667	15.08563301	-7.99730894	-18.35246897	12.8064688	-74.66387139	-97.10244593	-49.57710638	-18.53046159	0.25931877	-9.21917971	52.61688438	-3.11598228	17.81398063	-12.60634333	43.11622029
25.19	-3.09643468	0.09461419	9.88458594	-8.86322446	-19.82454343	21.98651243	-41.73442844	-91.61602392	-10.42152271	-15.63423493	11.54798985	-25.80280513	22.31459321	-5.33451952	17.56459011	20.08967686	42.62767126
25.2	-2.85954561	-1.5187255	19.62134175	46.75339577	11.54426739	-16.00756401	-24.64546373	-16.18935566	-9.73478888	33.82110497	-24.75610861	-12.67451792	30.49331619	16.63536955	-10.85190702	8.35773606	-9.81750445
25.21	1.50448964	-10.13399123	18.66469388	21.09273512	6.3688875	19.08042271	3.65763114	-61.04934896	-14.87493073	-13.92540286	17.93742686	25.972672	5.39459216	24.61350492	-31.22957006	27.78703233	-35.11358088
25.22	36.59070714	-7.09197566	15.45931426	-27.54303142	-19.77063761	-3.56781707	-20.60755433	6.51495585	21.86562094	-27.20651355	-33.32663055	17.55040334	46.72223683	-3.87158704	-7.46157549	-41.78813099	41.51031057
25.23	63.94309461	-4.08185007	-3.84513507	53.99679308	17.88737473	-17.0773457	8.39781379	9.88366637	26.01182092	-17.40160574	-3.9468481	34.83905858	38.89213836	35.6094119	29.68308593	30.86558189	-22.53916331
25.24	38.12831894	-11.32293268	14.4984705	48.87537415	3.04527859	34.00898373	-55.43130626	-75.51095327	7.23412785	-41.6639755	3.64595258	-24.53603698	52.399816	34.08136005	-8.93134602	10.71541438	-33.3957135
25.25	-25.7108953	5.80135907	3.10857127	-25.90030828	1.09837031	34.60151176	-87.36476584	-51.96718386	-18.76979186	-45.71003721	-16.80601076	30.07159333	-5.24665244	-4.50041897	10.93362783	40.38164138	25.12543517
25.26	33.97403007	-16.66106319	-16.87592505	-17.2440805	-4.18864589	-3.34093055	-58.29541939	3.04958487	27.27764392	4.13005835	5.80883575	2.97947436	7.62969905	18.46168338	9.08430753	42.41461965	28.7167956
25.27	55.95916934	-8.99597285	22.01149053	1.91794334	-4.43479411	14.2411123	-32.15762952	-20.05793793	-8.48417719	4.8643728	12.55002568	-34.08678135	15.11740318	4.41932554	-10.50331074	24.17121087	-43.84280668
25.28	10.39584106	-5.83337091	3.08356468	56.47820493	-15.09477657	-8.77282669	-9.80426723	-78.9113261	21.13289211	-16.06368403	-14.82198141	33.92532217	52.88615161	12.67393157	-43.19002657	-1.81130656	21.33017825
25.29	13.99856346	-13.29191989	-19.88310652	63.80064313	-1.63689343	24.67633586	-68.0658067	6.36544617	-12.64201195	42.93923862	-9.64241208	26.71514908	24.41970541	24.82011799	19.95271199	-13.63874415	3.76731122
25.3	-6.19197411	-16.33575074	11.87355101	12.41344625	4.73483905	29.4311915	-108.3420883	-16.08258021	7.22964644	-16.62298149	18.8035692	21.82339949	14.75785989	-1.13695459	38.94397008	17.20047386	34.3764373
25.31	59.20269038	-14.61236634	-15.06008855	-2.93701279	4.97511412	2.12488132	-19.24150486	-53.98878653	-29.67707612	9.82005991	-26.81865903	-10.53401295	48.97302296	29.73093834	-29.80913566	-1.33134631	22.01790767
25.32	-3.44194964	0.09951423	-17.67019825	8.8212057	6.30062142	-5.1347311	-101.8697452	-47.17735285	-46.20267042	-25.46695259	-8.5774197	-7.71195732	32.9882094	9.48355411	-31.10638467	29.13213392	24.43145151
25.33	-7.65968324	-5.04488082	26.04865001	-19.82969297	3.49745003	-3.21547705	4.91097174	-30.2554157	-45.70104501	23.24478767	15.166175	8.4617879	-4.39200145	22.58813285	26.60290713	31.99572783	21.0562335
25.34	8.90516126	17.32221635	17.87513271	52.74996315	9.882021	-16.89861704	-20.31153012	-112.5962607	31.40175743	-37.92153149	4.38336271	-29.84161366	48.16571841	26.21499529	30.70462126	5.82957623	41.42810315
25.35	2.8477983	14.70658016	0.97037023	25.55994506	-9.70443061	-3.13939109	-3.02834292	-110.4900288	27.20077133	15.46993986	-28.02742157	21.27235838	27.84822769	37.85677827	-39.52129476	-10.65742702	14.99981826
25.36	23.15522564	-10.87503672	-4.54258191	8.77963921	9.43303712	8.28777076	-10.31056084	6.37275157	37.11816002	28.71595294	-17.54852222	0.38985023	0.18833267	46.9431506	-38.27798266	44.69177438	-10.60389254
25.37	-18.6680394	-19.69917858	33.43394389	30.09225537	12.64716081	32.82909039	-29.99717661	-75.97830624	-10.97475979	-24.15301592	9.16935108	25.58982631	55.01559509	47.43876337	-29.13555108	0.25078004	-13.17802921
25.38	-13.72688111	-2.69765671	-18.38592778	0.31629783	-4.10980724	29.18484534	-20.95187598	-89.63183581	-5.70342384	-46.32462129	33.2014335	27.79721006	-6.99228334	43.31638964	21.62013498	-8.84854582	8.45408338
25.39	60.90613116	17.74955559	21.53421727	15.5833561	-2.15231628	-18.51720319	-15.48068935	-35.97740587	-12.89867009	-18.65651973	-13.08238868	16.21141345	54.31104084	19.32300886	-25.1637202	-44.96255297	-41.85797934
25.4	23.07146707	10.13289554	4.90370122	63.14126398	1.23835489	-5.7661	-91.49336469	-74.05971938	-19.80311908	28.40016744	10.67400676	-24.16372557	2.77571595	45.42111562	-37.532994	30.7427749	43.77201671
25.41	39.50696095	-14.25902802	-0.77596849	6.80769496	-4.53406174	9.91548241	-69.7551981	-84.15367026	-12.82403621	1.56633362	-27.35814943	-15.2310938	-9.68956949	1.73944962	-5.06846897	-44.56946855	-24.08291108
25.42	69.55086566	1.12855312	-9.93450295	-21.83826979	-10.16088436	4.14946541	-66.13052349	-31.53589774	-14.19834394	18.66593931	-20.09205494	-8.90650424	46.09288002	-5.55409728	-19.4284287	-37.61147091	-42.82961984
25.43	-1.39922706	-11.65712346	3.94600897	-17.00526472	-8.01232581	18.82195374	-78.61626748	-107.1041873	0.70150591	-24.30880637	-15.34803801	-8.77037679	1.44995182	14.6236795	41.66590785	42.78615216	28.93196201
25.44	29.5451149	-4.75942191	16.76836175	2.45063495	-8.96840003	23.45212035	0.46539829	-6.21502884	28.65624739	36.71024274	24.48538419	-1.82553767	7.5598381	47.34516881	-1.61133333	-3.47293607	27.33073297
25.45	-20.93682959	4.53963233	30.86569534	-10.74078216	8.4711439	-6.38055204	-33.46170832	-77.70059424	-31.81283348	15.73446919	-32.06103578	-13.23246729	18.41502838	2.25090743	44.68040967	30.15525577	-36.56284569
25.46	-10.26486235	-0.88397104	32.42767091	-0.53125572	-11.7637389	23.24035181	-36.34639505	-53.72304784	-3.94663857	-40.13118093	-30.95270136	-1.2759524	25.10961737	9.78322829	12.09275124	2.45211682	23.22929479
25.47	44.39859061	-12.26020483	-18.77582424	19.42621132	-18.67976757	1.09652359	-111.1937743	-59.80034212	-40.3593802	-41.95341273	-32.17843592	27.11992367	20.9283278	19.1279929	13.01353199	41.49045613	4.72210302
25.48	28.11352148	-0.09799949	-2.70979099	1.24257402	17.59999816	-8.77432338	-92.86353183	-47.62896999	35.62600915	48.98046449	-18.38789393	-9.90079021	-1.6540975	39.17358645	-31.95955428	12.96233099	34.75566504
25.49	25.87652347	0.65448661	-17.6329015	66.23751741	11.98804281	-3.2708632	-31.52315322	-40.11663353	-46.2132088	-23.73235659	26.33574962	-33.49452268	29.26403046	50.89710563	10.9406995	-17.48333405	-25.65064835
25.5	-9.64494396	13.75916428	-8.46062966	46.79412833	-7.59592662	-17.42427275	-11.31942796	-112.4174077	-41.68475102	6.02120091	-3.79765964	31.92599305	-1.76698455	25.40349728	-35.40535943	-23.66637025	12.91137729
25.51	37.64111306	-18.67104731	34.84677408	7.57136874	-11.82042544	-8.36229507	-108.9116437	-78.1622975	36.42936316	0.68707042	30.78386077	-2.12866391	3.52832305	-6.87191757	21.17013349	-36.68093304	-22.13080196
25.52	47.94451659	1.91154684	16.37342399	36.11468599	-2.31954808	18.28261942	-75.82388448	-85.42562799	-10.67769447	-18.96536049	4.05656209	-1.31588701	25.00999968	39.47264896	-33.60045843	-36.24644279	16.07898195
25.53	43.445772	-12.43747457	20.83132486	-19.21539168	2.50692155	9.98932378	-69.87219733	-55.62094365	-3.15919047	-3.54703836	-13.96013639	-17.10882333	6.45690901	15.16250724	35.04409243	36.37127709	38.38852093
25.54	49.35505811	5.20740146	1.60123098	7.24856707	-10.81826251	22.12607631	-51.7562572	-40.72317743	-45.09984671	-9.32421977	16.55393822	3.16726362	7.04455168	18.40267493	37.98539704	-43.42216914	42.77402544
25.55	7.38405995	8.45713689	-13.14974848	-16.95610499	17.23202044	-3.39206365	-32.14605162	-67.74317468	-38.44340078	16.46362715	-3.68332101	-21.34238959	39.58558394	41.59348443	-20.04231774	-24.90059229	25.911996
25.56	64.19920303	-10.80850407	19.54726092	-22.28034983	2.02459171	21.74691191	-61.47767692	3.39784489	-44.26230033	45.7750116	-12.02281801	20.38346524	18.7426245	55.64163791	28.0791935	-1.35376831	12.58631836
